<svg xmlns="http://www.w3.org/2000/svg" viewBox="0 0 332.68 194.58"><defs><style>.cls-1{fill:#231f20;}</style></defs><g id="Layer_2" data-name="Layer 2"><g id="Layer_1-2" data-name="Layer 1"><path class="cls-1" d="M233.59,20.55a7.91,7.91,0,1,1-7.9-7.92A7.92,7.92,0,0,1,233.59,20.55Z"/><path class="cls-1" d="M135.3,71.35V29.11h12.33V60.26A212.2,212.2,0,0,1,175.34,41V14.27h12.29v20a193.38,193.38,0,0,1,23.27-9.84,56,56,0,1,0-91.32,64.77A166.39,166.39,0,0,1,135.3,71.35Z"/><path class="cls-1" d="M212,26a131.29,131.29,0,0,0-24.33,13.34V97.67H175.34V48.79c-17,14.31-32,33-41.35,54A56,56,0,0,0,212,26Z"/><path class="cls-1" d="M49.44,146.91h.27v2.33l-1.84.24c-3.12.45-3.12,1-3.12,8v25.42c0,7,0,7.58,3.11,8l1.85.24v2.33H30.17v-2.33l.24,0,1.41-.18a1.83,1.83,0,0,0,.26,0c3-.46,3-1,3-8V171.05H14.59V183c0,6.95,0,7.51,3,8l1.92.24v2.33H0v-2.33l.24,0L1.4,191l.52-.07c3-.46,3-1,3-8V157.51c0-7,0-7.58-3-8L0,149.24v-2.33H19.54v2.33l-.24,0-1.56.19-.11,0c-3,.45-3,1-3,8v9.93H35.12v-9.86c0-7,0-7.58-3-8l-1.92-.24v-2.33Z"/><path class="cls-1" d="M127,146.92a15.11,15.11,0,0,1,3.43-.43h.3c0,.06,18.49,34.52,18.49,34.52l0,.08,17.28-34.15a.45.45,0,0,0,.12,0,12.11,12.11,0,0,1,3.55-.43h.26c0,.08,2.11,38.31,2.11,38.31.28,5.33,1.21,5.72,3.12,6l2.32.39v2.32H157.75v-2.33l2.52-.38c2.65-.47,3.36-.6,3.36-4l0-1.13-.87-23h-.08s-14.22,30.13-14.22,30.14-.1,0-.1,0a13.38,13.38,0,0,1-2.71.71l-.2,0c0-.05-15.51-31.1-15.51-31.1l-.81,23.21,0,1.48c0,3,.71,3.15,3.36,3.68l2.54.38v2.33H119.2v-2.32l2-.39c1.88-.39,2.8-.78,3.14-5.4,0,0,2.34-37.74,2.39-38.47Z"/><path class="cls-1" d="M272.42,146.91h.21l.05.21a51.06,51.06,0,0,1,.85,11.37v.24l-3,.42,0-.25c-1.8-8.8-4-8.8-11.18-8.8h-4.75v17.41H259c6.26,0,7-.09,7.34-2.77l.38-2.68h2.33V176.5h-2.33l-.38-2.47c-.45-2.84-1.2-2.84-7.06-2.84h-4.75v18.15h0a29.4,29.4,0,0,0,6.74,1c9.67,0,10.87-4.63,12.14-9.52l.3-1.15,3,.59c0,.06,0,.25,0,.25a49.42,49.42,0,0,1-2.32,12.84l-.06.19H240v-2.33l1.89-.25.26,0c2.81-.53,2.81-.53,2.81-8V157.51c0-7.33,0-7.33-2.67-7.94l-.39-.07-1.9-.26v-2.33Z"/><path class="cls-1" d="M94.76,146.9h16v2.35l-1.58.45c-1.85.5-2.74,1-2.81,5.59L106,172.4l-.1,3.27c-.66,12.54-6.84,18.91-18.38,18.91-14.39,0-21.38-6.52-21.38-19.93V157.44c0-6.95,0-7.52-3-8l-1.92-.24V146.9H80.67v2.33l-1.91.24c-3.05.45-3.05,1-3.05,8v20.84c0,7.49,5.18,12.52,12.89,12.52,5,0,10.71-2.92,11.75-11.09a58.45,58.45,0,0,0,.38-7.2l-.29-18.11c-.06-4.46-.53-4.52-3.62-5l-2-.23Z"/><path class="cls-1" d="M216.05,168l-.17,0L216,168c5.93-2,8.94-5.78,8.94-11.13,0-6.58-5.13-9.91-15.22-9.91H188.68v2.33l1.91.24.23,0c2.81.54,2.81.54,2.81,7.85v25.56c0,7.4,0,7.4-2.74,8l-.33.07-1.88.24v2.33H207.1c13.16,0,20.11-4.63,20.11-13.4C227.21,170.91,218.67,168.55,216.05,168Zm-12.8-17.49h0a12.32,12.32,0,0,1,3.26-.44c5.34,0,8.8,3.3,8.8,8.39,0,7.74-5.23,8.74-9.78,8.74h-2.32Zm5.39,39.79a15.73,15.73,0,0,1-5.35-1h0V170.42H206c8.55,0,11.59,5.53,11.59,10.69C217.58,187.06,214.41,190.34,208.64,190.34Z"/><path class="cls-1" d="M332.24,191.16a5.53,5.53,0,0,1-4.09-1.77c-4.63-5.84-9.49-15.11-11-18.45l0,0,0,0c2.64-1.26,8.81-5,8.81-12,0-10.58-9-11.93-16.75-11.93H288.84v2.33l1.85.24c3.11.45,3.11.88,3.11,8v25.49c0,7,0,7.58-3.05,8l-.28,0-1.39.17-.24,0v2.33h19.54v-2.33l-1.92-.24c-3-.46-3-1-3-8v-9.43h2c3.37,0,4.09,1.54,5.52,4.6l1.22,2.51,2.65,5.17c1.8,3.58,4.73,7.69,11.56,7.69h6.35V191.2Zm-25.68-20.8h-3.14V150.55h0a12.47,12.47,0,0,1,3.31-.44c5.82,0,9.58,3.84,9.58,9.79C316.35,162.48,316.35,170.36,306.56,170.36Z"/></g></g></svg>